<svg width="41" height="42" viewBox="0 0 41 42" fill="none" xmlns="http://www.w3.org/2000/svg">
<path d="M31.7347 17.4722C31.7347 17.6088 31.6932 17.7421 31.6159 17.8546C31.5385 17.9671 31.4288 18.0535 31.3013 18.1023L13.7478 24.851C13.625 24.8982 13.4912 24.9086 13.3626 24.8808C13.234 24.853 13.1164 24.7883 13.0241 24.6946C12.9318 24.6008 12.8689 24.4822 12.843 24.3532C12.8172 24.2243 12.8296 24.0906 12.8787 23.9686L15.4795 17.4695L12.8765 10.9675C12.8279 10.8456 12.8159 10.7122 12.8419 10.5836C12.8679 10.4549 12.9309 10.3367 13.023 10.2433C13.1152 10.1499 13.2326 10.0855 13.3609 10.0577C13.4891 10.03 13.6227 10.0403 13.7452 10.0873L31.3011 16.8419C31.4283 16.8909 31.5377 16.9773 31.6149 17.0896C31.6921 17.2019 31.7345 17.3359 31.7347 17.4722Z" fill="#555555"/>
</svg>
