<svg width="16" height="5" viewBox="0 0 16 5" fill="none" xmlns="http://www.w3.org/2000/svg">
<path d="M2.0625 4.00122C1.59008 4.00122 1.13702 3.81355 0.802966 3.4795C0.468917 3.14546 0.28125 2.69239 0.28125 2.21997C0.28125 1.74755 0.468917 1.29449 0.802966 0.960437C1.13702 0.626387 1.59008 0.438721 2.0625 0.438721C2.53492 0.438721 2.98798 0.626387 3.32203 0.960437C3.65608 1.29449 3.84375 1.74755 3.84375 2.21997C3.84375 2.69239 3.65608 3.14546 3.32203 3.4795C2.98798 3.81355 2.53492 4.00122 2.0625 4.00122ZM8 4.00122C7.52758 4.00122 7.07451 3.81355 6.74047 3.4795C6.40642 3.14546 6.21875 2.69239 6.21875 2.21997C6.21875 1.74755 6.40642 1.29449 6.74047 0.960437C7.07451 0.626387 7.52758 0.438721 8 0.438721C8.47242 0.438721 8.92548 0.626387 9.25953 0.960437C9.59358 1.29449 9.78125 1.74755 9.78125 2.21997C9.78125 2.69239 9.59358 3.14546 9.25953 3.4795C8.92548 3.81355 8.47242 4.00122 8 4.00122ZM13.9375 4.00122C13.4651 4.00122 13.012 3.81355 12.678 3.4795C12.3439 3.14546 12.1563 2.69239 12.1562 2.21997C12.1562 1.74755 12.3439 1.29449 12.678 0.960437C13.012 0.626387 13.4651 0.438721 13.9375 0.438721C14.4099 0.438721 14.863 0.626387 15.197 0.960437C15.5311 1.29449 15.7187 1.74755 15.7188 2.21997C15.7187 2.69239 15.5311 3.14546 15.197 3.4795C14.863 3.81355 14.4099 4.00122 13.9375 4.00122Z" fill="#767676"/>
</svg>
