<svg width="40" height="42" viewBox="0 0 40 42" fill="none" xmlns="http://www.w3.org/2000/svg">
<path d="M0 4.38989C0 2.18075 1.79086 0.389893 4 0.389893H40V41.3899H4C1.79086 41.3899 0 39.599 0 37.3899V4.38989Z" fill="#2FCEFF"/>
<path d="M18.0078 12.8821C19.4661 12.8821 20.8073 13.2402 22.0312 13.9563C23.2552 14.6724 24.2253 15.6425 24.9414 16.8665C25.6576 18.0904 26.0156 19.4316 26.0156 20.8899C26.0156 22.3482 25.6576 23.6894 24.9414 24.9133C24.2253 26.1373 23.2552 27.1073 22.0312 27.8235C20.8073 28.5396 19.4661 28.8977 18.0078 28.8977C16.5495 28.8977 15.2083 28.5396 13.9844 27.8235C12.7604 27.1073 11.7904 26.1373 11.0742 24.9133C10.3581 23.6894 10 22.3482 10 20.8899C10 19.4316 10.3581 18.0904 11.0742 16.8665C11.7904 15.6425 12.7604 14.6724 13.9844 13.9563C15.2083 13.2402 16.5495 12.8821 18.0078 12.8821ZM19.0234 16.9055C19.0234 16.6191 18.9258 16.3782 18.7305 16.1829C18.5352 15.9875 18.2943 15.8899 18.0078 15.8899C17.7214 15.8899 17.4805 15.9875 17.2852 16.1829C17.0898 16.3782 16.9922 16.6125 16.9922 16.886C16.9922 17.1594 17.0898 17.3938 17.2852 17.5891C17.4805 17.7844 17.7214 17.8821 18.0078 17.8821C18.2943 17.8821 18.5352 17.7844 18.7305 17.5891C18.9258 17.3938 19.0234 17.1659 19.0234 16.9055ZM19.0234 25.8899V19.8743H16.9922V25.8899H19.0234Z" fill="white"/>
</svg>
